<svg id="Layer_1" data-name="Layer 1" xmlns="http://www.w3.org/2000/svg" viewBox="0 0 505 505">
  <defs>
    <style>
      .cls-1, .cls-10, .cls-11, .cls-12, .cls-2, .cls-3, .cls-4, .cls-5, .cls-6, .cls-7, .cls-8, .cls-9 {
        fill: none;
        stroke-miterlimit: 10;
      }

      .cls-1, .cls-10, .cls-11, .cls-12, .cls-3, .cls-7, .cls-8, .cls-9 {
        stroke: #000;
      }

      .cls-1, .cls-12, .cls-5, .cls-7, .cls-8, .cls-9 {
        stroke-width: 0.5px;
      }

      .cls-1 {
        opacity: 0.15;
      }

      .cls-2, .cls-4, .cls-5 {
        stroke: #4d4d4d;
      }

      .cls-2 {
        stroke-width: 5px;
      }

      .cls-10, .cls-11, .cls-12, .cls-3, .cls-4, .cls-5, .cls-6, .cls-7, .cls-8, .cls-9 {
        stroke-linecap: round;
      }

      .cls-6 {
        stroke: #999;
      }

      .cls-8 {
        stroke-dasharray: 11.961 11.961;
      }

      .cls-9 {
        stroke-dasharray: 11.343 11.343;
      }

      .cls-10 {
        stroke-dasharray: 2.089 2.089;
      }

      .cls-11 {
        stroke-dasharray: 2;
      }

      .cls-12 {
        stroke-dasharray: 10.522 10.522;
      }
    </style>
  </defs>
  <title>9bec0457-e4ad-48c9-aed4-d90691f89885</title>
  <line class="cls-1" x1="16.136" y1="30.429" x2="493.546" y2="30.429"/>
  <line class="cls-1" x1="16.136" y1="62.078" x2="493.546" y2="62.078"/>
  <line class="cls-1" x1="16.136" y1="77.902" x2="493.546" y2="77.902"/>
  <line class="cls-1" x1="16.136" y1="93.726" x2="493.546" y2="93.726"/>
  <line class="cls-1" x1="16.136" y1="109.55" x2="493.546" y2="109.55"/>
  <line class="cls-1" x1="16.136" y1="125.374" x2="493.546" y2="125.374"/>
  <line class="cls-1" x1="16.136" y1="141.198" x2="493.546" y2="141.198"/>
  <line class="cls-1" x1="16.136" y1="157.023" x2="493.546" y2="157.023"/>
  <line class="cls-1" x1="16.136" y1="172.847" x2="493.546" y2="172.847"/>
  <line class="cls-1" x1="16.136" y1="188.671" x2="493.546" y2="188.671"/>
  <line class="cls-1" x1="16.136" y1="204.495" x2="493.546" y2="204.495"/>
  <line class="cls-1" x1="16.136" y1="220.319" x2="493.546" y2="220.319"/>
  <line class="cls-1" x1="16.136" y1="236.144" x2="493.546" y2="236.144"/>
  <line class="cls-1" x1="16.136" y1="251.968" x2="493.546" y2="251.968"/>
  <line class="cls-1" x1="16.136" y1="267.792" x2="493.546" y2="267.792"/>
  <line class="cls-1" x1="16.136" y1="283.616" x2="493.546" y2="283.616"/>
  <line class="cls-1" x1="16.136" y1="299.44" x2="493.546" y2="299.44"/>
  <line class="cls-1" x1="16.136" y1="315.264" x2="493.546" y2="315.264"/>
  <line class="cls-1" x1="16.136" y1="331.089" x2="493.546" y2="331.089"/>
  <line class="cls-1" x1="16.136" y1="346.913" x2="493.546" y2="346.913"/>
  <line class="cls-1" x1="16.136" y1="362.737" x2="493.546" y2="362.737"/>
  <line class="cls-1" x1="16.136" y1="378.561" x2="493.546" y2="378.561"/>
  <line class="cls-1" x1="16.136" y1="394.385" x2="493.546" y2="394.385"/>
  <line class="cls-1" x1="16.136" y1="410.209" x2="493.546" y2="410.209"/>
  <line class="cls-1" x1="16.136" y1="426.034" x2="493.546" y2="426.034"/>
  <line class="cls-1" x1="16.136" y1="441.858" x2="493.546" y2="441.858"/>
  <line class="cls-1" x1="16.136" y1="457.682" x2="493.546" y2="457.682"/>
  <line class="cls-1" x1="16.136" y1="473.506" x2="493.546" y2="473.506"/>
  <line class="cls-1" x1="15.454" y1="45.91" x2="492.893" y2="45.192"/>
  <line class="cls-1" x1="27.095" y1="485.483" x2="27.095" y2="23.398"/>
  <line class="cls-1" x1="42.279" y1="485.483" x2="42.279" y2="23.398"/>
  <line class="cls-1" x1="72.647" y1="485.483" x2="72.647" y2="23.398"/>
  <line class="cls-1" x1="87.831" y1="485.483" x2="87.831" y2="23.398"/>
  <line class="cls-1" x1="103.015" y1="485.483" x2="103.015" y2="23.398"/>
  <line class="cls-1" x1="118.2" y1="485.483" x2="118.2" y2="23.398"/>
  <line class="cls-1" x1="133.384" y1="485.483" x2="133.384" y2="23.398"/>
  <line class="cls-1" x1="148.568" y1="485.483" x2="148.568" y2="23.398"/>
  <line class="cls-1" x1="163.752" y1="485.483" x2="163.752" y2="23.398"/>
  <line class="cls-1" x1="178.936" y1="485.483" x2="178.936" y2="23.398"/>
  <line class="cls-1" x1="194.12" y1="485.483" x2="194.12" y2="23.398"/>
  <line class="cls-1" x1="209.304" y1="485.483" x2="209.304" y2="23.398"/>
  <line class="cls-1" x1="224.488" y1="485.483" x2="224.488" y2="23.398"/>
  <line class="cls-1" x1="239.673" y1="485.483" x2="239.673" y2="23.398"/>
  <line class="cls-1" x1="254.857" y1="485.483" x2="254.857" y2="23.398"/>
  <line class="cls-1" x1="270.041" y1="485.483" x2="270.041" y2="23.398"/>
  <line class="cls-1" x1="285.225" y1="485.483" x2="285.225" y2="23.398"/>
  <line class="cls-1" x1="300.409" y1="485.483" x2="300.409" y2="23.398"/>
  <line class="cls-1" x1="315.593" y1="485.483" x2="315.593" y2="23.398"/>
  <line class="cls-1" x1="330.777" y1="485.483" x2="330.777" y2="23.398"/>
  <line class="cls-1" x1="345.961" y1="485.483" x2="345.961" y2="23.398"/>
  <line class="cls-1" x1="361.145" y1="485.483" x2="361.145" y2="23.398"/>
  <line class="cls-1" x1="376.33" y1="485.483" x2="376.33" y2="23.398"/>
  <line class="cls-1" x1="391.514" y1="485.483" x2="391.514" y2="23.398"/>
  <line class="cls-1" x1="406.698" y1="485.483" x2="406.698" y2="23.398"/>
  <line class="cls-1" x1="421.882" y1="485.483" x2="421.882" y2="23.398"/>
  <line class="cls-1" x1="437.066" y1="485.483" x2="437.066" y2="23.398"/>
  <line class="cls-1" x1="452.25" y1="485.483" x2="452.25" y2="23.398"/>
  <line class="cls-1" x1="467.434" y1="485.483" x2="467.434" y2="23.398"/>
  <line class="cls-1" x1="482.618" y1="485.483" x2="482.618" y2="23.398"/>
  <line class="cls-1" x1="57.133" y1="486.144" x2="56.445" y2="24.03"/>
  <rect class="cls-2" x="2.5" y="2.5" width="500" height="500" rx="30" ry="30"/>
  <line class="cls-3" x1="210.811" y1="346.745" x2="210.812" y2="346.746"/>
  <path class="cls-4" d="M270.937,393.381a70.34,70.34,0,0,0-.837-10.857,67.093,67.093,0,0,0-2.411-10.183,63.167,63.167,0,0,0-3.833-9.32,38.506,38.506,0,0,0-4.735-7.752c-.155-.2-.973-1.176-1.233-1.589-.392-.623-.759-1.234-.775-1.264-.183-.336-1.024-1.652-1.639-2.61-1.794-2.792-1.512-2.572-2.687-5.674a35.723,35.723,0,0,1-2.207-10.278q-.082-1.241-.082-2.486a36.266,36.266,0,0,1,1.977-11.9c1.5-3.792,1.792-8.312,1.792-12.8,0-15.966-10.647-28.9-23.792-28.9H203.352v34.879a29.474,29.474,0,1,1-16.15,0V277.773c-14.087,0-32.694-3.675-43.3,7.7a29.131,29.131,0,0,0-7.5,19.636c-.032,8.508,3.5,16.431,4.141,24.833a33.489,33.489,0,0,1-6.376,21.842,23.909,23.909,0,0,1-1.653,2.035c-8,10.335-12.89,24.255-12.89,39.561,0,14.316,4.36,28.826,13.315,40.116a48.139,48.139,0,0,0,13.292,11.636c4.1,2.407,3.989,2.413,8.5,3.842.127.04,3.233,1.074,3.36,1.114.071.022,3.429,1.04,3.5,1.057a73.37,73.37,0,0,0,8.5,1.3q5.375.69,10.782,1.078,7.186.517,14.4.515c11.252,0,15.713-.155,26.822-1.882.176-.027,5.65-.842,6.2-.932.131-.022,2.927-.727,3.6-.907.195-.052,2.9-.835,3.343-.953,7.864-2.091,10.4-4.086,16.422-9.505a56.943,56.943,0,0,0,14.44-21.043A68.061,68.061,0,0,0,270.937,393.381Zm-46.185,23.966H211.075a29.484,29.484,0,0,1-31.6,0H165.8v-5.642h58.949Z"/>
  <path class="cls-4" d="M221.828,340.491a26.493,26.493,0,0,1-36.867,24.382h-.012a26.5,26.5,0,0,1,2.312-49.607v7.8a19.208,19.208,0,1,0,16.15,0v-7.8A26.493,26.493,0,0,1,221.828,340.491Z"/>
  <path class="cls-4" d="M221.813,340.491a26.493,26.493,0,0,1-36.867,24.382h-.012a26.5,26.5,0,0,1,2.312-49.607V129.911H203.4V315.265A26.493,26.493,0,0,1,221.813,340.491Z"/>
  <line class="cls-5" x1="185.256" y1="415.665" x2="205.792" y2="413.176"/>
  <circle class="cls-5" cx="186.573" cy="418.184" r="0.59"/>
  <circle class="cls-5" cx="190.041" cy="418.184" r="0.59"/>
  <circle class="cls-5" cx="193.509" cy="418.184" r="0.59"/>
  <circle class="cls-5" cx="196.977" cy="418.184" r="0.59"/>
  <circle class="cls-5" cx="200.446" cy="418.184" r="0.59"/>
  <circle class="cls-5" cx="203.914" cy="418.184" r="0.59"/>
  <line class="cls-6" x1="187.262" y1="134.677" x2="203.412" y2="134.677"/>
  <path class="cls-4" d="M211.353,75.69l-2.45,27.576a6.841,6.841,0,0,0-3.983,1.711,4.374,4.374,0,0,0-2.344,4.638l.072,13.75a7.631,7.631,0,0,1-.813,4.264c-1.387,2.128-4.377,2.316-6.916,2.278-2.145-.032-4.576-.193-5.947-1.844-1.11-1.337-1.154-3.234-1.143-4.972l.083-13.78a3.951,3.951,0,0,0-2.082-4.1c-1.259-.951-2.636-1.944-4.213-1.963l-1.335-15.032-.668-7.516a28.707,28.707,0,0,1-.318-3.578c.071-1.733.218-1.435,2.022-1.434Z"/>
  <g>
    <line class="cls-7" x1="195.746" y1="37.175" x2="195.746" y2="43.175"/>
    <line class="cls-8" x1="195.746" y1="55.136" x2="195.746" y2="455.845"/>
    <line class="cls-7" x1="195.746" y1="461.825" x2="195.746" y2="467.825"/>
  </g>
  <g>
    <line class="cls-7" x1="104.362" y1="337.069" x2="110.362" y2="337.053"/>
    <line class="cls-9" x1="121.705" y1="337.023" x2="274.835" y2="336.621"/>
    <line class="cls-7" x1="280.507" y1="336.606" x2="286.507" y2="336.591"/>
  </g>
  <g>
    <line class="cls-7" x1="52.633" y1="447.443" x2="52.633" y2="81.572"/>
    <path d="M52.633,450.46a15.111,15.111,0,0,1,2.378-4.274l-2.378.86-2.377-.86A15.1,15.1,0,0,1,52.633,450.46Z"/>
    <path d="M52.633,78.554a15.111,15.111,0,0,0,2.378,4.274l-2.378-.86-2.377.86A15.1,15.1,0,0,0,52.633,78.554Z"/>
  </g>
  <g>
    <line class="cls-7" x1="179.878" y1="65.545" x2="211.416" y2="65.545"/>
    <path d="M178.1,65.545a8.915,8.915,0,0,1,2.521,1.4l-.507-1.4.507-1.4A8.908,8.908,0,0,1,178.1,65.545Z"/>
    <path d="M213.2,65.545a8.916,8.916,0,0,0-2.521,1.4l.507-1.4-.507-1.4A8.908,8.908,0,0,0,213.2,65.545Z"/>
  </g>
  <g>
    <line class="cls-7" x1="62.591" y1="367.592" x2="62.591" y2="318.522"/>
    <path d="M62.591,370.609a15.111,15.111,0,0,1,2.378-4.274l-2.378.86-2.377-.86A15.1,15.1,0,0,1,62.591,370.609Z"/>
    <path d="M62.591,315.5a15.111,15.111,0,0,0,2.378,4.274l-2.378-.86-2.377.86A15.1,15.1,0,0,0,62.591,315.5Z"/>
  </g>
  <g>
    <line class="cls-7" x1="122.902" y1="53.384" x2="268.391" y2="53.384"/>
    <path d="M121.122,53.384a8.915,8.915,0,0,1,2.521,1.4l-.507-1.4.507-1.4A8.908,8.908,0,0,1,121.122,53.384Z"/>
    <path d="M270.172,53.384a8.916,8.916,0,0,0-2.521,1.4l.507-1.4-.507-1.4A8.908,8.908,0,0,0,270.172,53.384Z"/>
  </g>
  <g>
    <rect class="cls-4" x="359.585" y="277.207" width="38.02" height="176.834"/>
    <g>
      <line class="cls-3" x1="359.585" y1="277.207" x2="359.585" y2="278.207"/>
      <line class="cls-10" x1="359.585" y1="280.296" x2="359.585" y2="321.024"/>
      <line class="cls-3" x1="359.585" y1="322.068" x2="359.585" y2="323.068"/>
    </g>
    <g>
      <line class="cls-3" x1="366.692" y1="277.207" x2="366.692" y2="278.207"/>
      <line class="cls-10" x1="366.692" y1="280.296" x2="366.692" y2="321.024"/>
      <line class="cls-3" x1="366.692" y1="322.068" x2="366.692" y2="323.068"/>
    </g>
    <line class="cls-11" x1="359.585" y1="323.068" x2="366.692" y2="323.068"/>
    <path class="cls-4" d="M362.66,130.08h4.03V277.21h-7V130.08h1.97l-1.97-.12c.15-2.48.31-4.96.46-7.43q.45-7.08.89-14.15t.89-14.15q.45-7.065.89-14.14c.07-1.18.15-2.36.22-3.54.02-.31.04-.61.06-.92.02-.33-.06-.49.24-.55a7.476,7.476,0,0,1,1.76.11c.58.03,6.95.37,6.95.43Q367.355,102.86,362.66,130.08Z"/>
    <g>
      <line class="cls-7" x1="378.595" y1="37.175" x2="378.595" y2="43.175"/>
      <line class="cls-8" x1="378.595" y1="55.136" x2="378.595" y2="455.845"/>
      <line class="cls-7" x1="378.595" y1="461.825" x2="378.595" y2="467.825"/>
    </g>
    <g>
      <line class="cls-7" x1="422.33" y1="336.831" x2="416.33" y2="336.831"/>
      <line class="cls-12" x1="405.808" y1="336.831" x2="347.935" y2="336.831"/>
      <line class="cls-7" x1="342.673" y1="336.831" x2="336.673" y2="336.831"/>
    </g>
    <g>
      <line class="cls-7" x1="366.465" y1="65.545" x2="362.47" y2="65.545"/>
      <path d="M368.245,65.545a8.916,8.916,0,0,1-2.521-1.4l.507,1.4-.507,1.4A8.908,8.908,0,0,1,368.245,65.545Z"/>
      <path d="M360.69,65.545a8.916,8.916,0,0,0,2.521-1.4l-.507,1.4.507,1.4A8.908,8.908,0,0,0,360.69,65.545Z"/>
    </g>
    <g>
      <line class="cls-7" x1="395.719" y1="53.384" x2="361.47" y2="53.384"/>
      <path d="M397.5,53.384a8.916,8.916,0,0,1-2.521-1.4l.507,1.4-.507,1.4A8.908,8.908,0,0,1,397.5,53.384Z"/>
      <path d="M359.69,53.384a8.916,8.916,0,0,0,2.521-1.4l-.507,1.4.507,1.4A8.908,8.908,0,0,0,359.69,53.384Z"/>
    </g>
  </g>
</svg>
