<svg id="Layer_1" data-name="Layer 1" xmlns="http://www.w3.org/2000/svg" viewBox="0 0 505 505">
  <defs>
    <style>
      .cls-1 {
        fill: #999;
        stroke: #4d4d4d;
        stroke-width: 5px;
      }

      .cls-1, .cls-2, .cls-3 {
        stroke-miterlimit: 10;
      }

      .cls-2 {
        fill: #333;
        stroke: gray;
      }

      .cls-3 {
        fill: #f2f2f2;
        stroke: #999;
      }
    </style>
  </defs>
  <title>72f7f321-0470-4633-83a8-4cd53f855826</title>
  <path class="cls-1" d="M495.7,9.33A23.085,23.085,0,0,0,479.288,2.5a22.432,22.432,0,0,0-4.21.39,23.286,23.286,0,0,0-19,22.93v1.33a14.964,14.964,0,0,1-14.93,15h-17.18a14.958,14.958,0,0,1-14.93-15V25.82A23.265,23.265,0,0,0,385.814,2.5H119.186A23.265,23.265,0,0,0,95.974,25.82v1.33a14.964,14.964,0,0,1-14.93,15H63.864a14.958,14.958,0,0,1-14.93-15V25.82a23.3,23.3,0,0,0-6.8-16.49A23,23,0,0,0,28.817,2.72,29.933,29.933,0,0,0,2.5,32.5V479.18A23.265,23.265,0,0,0,25.712,502.5a21.219,21.219,0,0,0,3.106-.22,27.745,27.745,0,0,0,3.543.22h17.5a15,15,0,0,1-.926-5.2V480.04a14.958,14.958,0,0,1,14.93-15h17.18a14.964,14.964,0,0,1,14.93,15V497.3a15,15,0,0,1-.926,5.2H409.961a15,15,0,0,1-.926-5.2V480.04a14.958,14.958,0,0,1,14.93-15h17.18a14.964,14.964,0,0,1,14.93,15V497.3a15,15,0,0,1-.926,5.2H470.32a28.732,28.732,0,0,0,4.758-.39,22.432,22.432,0,0,0,4.21.39A23.265,23.265,0,0,0,502.5,479.18V25.82A23.3,23.3,0,0,0,495.7,9.33ZM95.974,404.07a14.971,14.971,0,0,1-14.93,15H63.864a14.964,14.964,0,0,1-14.93-15V386.81a14.964,14.964,0,0,1,14.93-15h17.18a14.971,14.971,0,0,1,14.93,15Zm0-94.23a14.964,14.964,0,0,1-14.93,15H63.864a14.958,14.958,0,0,1-14.93-15V292.58a14.964,14.964,0,0,1,14.93-15h17.18a14.971,14.971,0,0,1,14.93,15Zm0-94.23a14.964,14.964,0,0,1-14.93,15H63.864a14.958,14.958,0,0,1-14.93-15V198.35a14.964,14.964,0,0,1,14.93-15h17.18a14.971,14.971,0,0,1,14.93,15Zm0-94.23a14.964,14.964,0,0,1-14.93,15H63.864a14.958,14.958,0,0,1-14.93-15V104.12a14.964,14.964,0,0,1,14.93-15h17.18a14.971,14.971,0,0,1,14.93,15ZM360.143,426.9a29.929,29.929,0,0,1-29.861,30H175.394a29.929,29.929,0,0,1-29.861-30V380.13a29.929,29.929,0,0,1,29.861-30H330.283a29.929,29.929,0,0,1,29.861,30Zm0-151.02a29.929,29.929,0,0,1-29.861,30H175.394a29.929,29.929,0,0,1-29.861-30V229.12a29.929,29.929,0,0,1,29.861-30H330.283a29.929,29.929,0,0,1,29.861,30Zm0-151.01a29.929,29.929,0,0,1-29.861,30H175.394a29.929,29.929,0,0,1-29.861-30V78.1a29.929,29.929,0,0,1,29.861-30H330.283a29.929,29.929,0,0,1,29.861,30Zm95.933,279.2a14.971,14.971,0,0,1-14.93,15h-17.18a14.964,14.964,0,0,1-14.93-15V386.81a14.964,14.964,0,0,1,14.93-15h17.18a14.971,14.971,0,0,1,14.93,15Zm0-94.23a14.964,14.964,0,0,1-14.93,15h-17.18a14.958,14.958,0,0,1-14.93-15V292.58a14.964,14.964,0,0,1,14.93-15h17.18a14.971,14.971,0,0,1,14.93,15Zm0-94.23a14.964,14.964,0,0,1-14.93,15h-17.18a14.958,14.958,0,0,1-14.93-15V198.35a14.964,14.964,0,0,1,14.93-15h17.18a14.971,14.971,0,0,1,14.93,15Zm0-94.23a14.964,14.964,0,0,1-14.93,15h-17.18a14.958,14.958,0,0,1-14.93-15V104.12a14.964,14.964,0,0,1,14.93-15h17.18a14.971,14.971,0,0,1,14.93,15Z"/>
  <path class="cls-2" d="M227.618,273.992l45.82-152.376s-29.141,1.968-34.726,20.711c-4.37,14.515-36.48,102.37-50.882,141.546l-64.006,15.813c-3.4-11.123-11.724-20-22.833-25.75-14.047-7.3-32.464-9.546-50.989-5.024-33.249,8.192-54.02,35.449-46.45,60.766,3.385,11.249,11.786,20.181,22.987,26.015,14.032,7.271,32.1,7.913,50.974,5.024,20.2-3.1,100.9-43.432,100.9-43.432s-49.358,80.6-55.682,98.951c-13.155,38.254,1.4,75.309,33.218,84.352a50.694,50.694,0,0,0,13.863,1.912c28.095,0,55.4-22.274,66.36-54.151,13.14-38.3-1.446-75.337-33.234-84.352-.723-.223-1.477-.293-2.216-.461l16.032-53.453c43.219-13.063,140.074-42.19,156.076-46.14,20.663-5.108,22.833-31.5,22.833-31.5ZM70.081,336.042c-10.509,2.568-21.587,1.633-29.6-2.54-3.585-1.842-8.17-5.136-9.755-10.509-3.431-11.514,8.755-24.968,26.679-29.406,10.616-2.624,21.387-1.7,29.587,2.54,3.523,1.828,8.124,5.178,9.77,10.523C100.191,318.164,87.99,331.632,70.081,336.042Zm139.3,104.715c-7.708,22.386-28.6,38.352-44.527,33.872-16.232-4.606-23.264-27.871-15.371-50.829,6.8-19.762,23.4-34.668,38.619-34.668a22.42,22.42,0,0,1,5.893.809C210.216,394.533,217.263,417.813,209.385,440.757Z"/>
  <circle class="cls-3" cx="204.717" cy="295.055" r="5"/>
</svg>
