<svg id="Layer_1" data-name="Layer 1" xmlns="http://www.w3.org/2000/svg" viewBox="0 0 505 505">
  <defs>
    <style>
      .cls-1 {
        fill: gray;
        stroke: #333;
        stroke-miterlimit: 10;
        stroke-width: 5px;
      }
    </style>
  </defs>
  <title>54c18c7a-4045-428d-bf3f-797f02cfbd21</title>
  <path class="cls-1" d="M472.5,2.5H32.5a30,30,0,0,0-30,30v440a30,30,0,0,0,30,30H270.31V307.4H204V232.88h66.31V167.26c1.11-32.53,16.46-64.1,45.95-79.44,15.51-8.07,30.83-8.73,47.9-8.97q29.88-.435,59.76-.54l-.02,67.55c-13.18-1.32-34.34-1.29-47.54.85-12.78,2.07-20.24,9.79-27.43,20.55v65.62h71.78l-8.89,74.52H348.93V502.5H472.5a30,30,0,0,0,30-30V32.5A30,30,0,0,0,472.5,2.5Z"/>
</svg>
