<svg id="Layer_1" data-name="Layer 1" xmlns="http://www.w3.org/2000/svg" viewBox="0 0 505 505">
  <defs>
    <style>
      .cls-1 {
        fill: #999;
        stroke: #4d4d4d;
        stroke-miterlimit: 10;
        stroke-width: 5px;
      }
    </style>
  </defs>
  <title>4b53b589-a492-4aa8-ab0d-5c9e177e6626</title>
  <path class="cls-1" d="M457.271,2.5H47.729A45.229,45.229,0,0,0,2.5,47.729V457.27A45.23,45.23,0,0,0,47.729,502.5H457.27a45.23,45.23,0,0,0,45.23-45.23V47.729A45.229,45.229,0,0,0,457.271,2.5ZM157.221,434.233A13.162,13.162,0,0,1,144.059,447.4H88.03a13.162,13.162,0,0,1-13.162-13.162V199.363A13.162,13.162,0,0,1,88.03,186.2h56.029a13.162,13.162,0,0,1,13.162,13.162ZM116.045,164.06a53.228,53.228,0,1,1,53.228-53.228A53.228,53.228,0,0,1,116.045,164.06ZM450.026,435.293a12.1,12.1,0,0,1-12.1,12.1H377.8a12.1,12.1,0,0,1-12.1-12.1V325.126c0-16.435,4.821-72.017-42.949-72.017-37.054,0-44.569,38.044-46.079,55.118V435.293a12.1,12.1,0,0,1-12.1,12.1H206.42a12.1,12.1,0,0,1-12.1-12.1V198.3a12.1,12.1,0,0,1,12.1-12.1h58.149a12.1,12.1,0,0,1,12.1,12.1v20.491c13.74-20.619,34.158-36.534,77.634-36.534,96.272,0,95.721,89.942,95.721,139.361V435.293Z"/>
</svg>
