<svg id="Layer_1" data-name="Layer 1" xmlns="http://www.w3.org/2000/svg" viewBox="0 0 505 505">
  <defs>
    <style>
      .cls-1, .cls-2, .cls-7, .cls-8 {
        fill: none;
      }

      .cls-1, .cls-3, .cls-6, .cls-8 {
        stroke: #4d4d4d;
      }

      .cls-1, .cls-2, .cls-3, .cls-4, .cls-5, .cls-6, .cls-7, .cls-8 {
        stroke-miterlimit: 10;
      }

      .cls-1 {
        stroke-width: 5px;
      }

      .cls-2, .cls-4, .cls-5, .cls-7 {
        stroke: #999;
      }

      .cls-3, .cls-5 {
        fill: #999;
      }

      .cls-3, .cls-4, .cls-5, .cls-6, .cls-7, .cls-8 {
        stroke-width: 2px;
      }

      .cls-4 {
        fill: #4d4d4d;
      }

      .cls-6 {
        fill: #fff;
      }

      .cls-8 {
        opacity: 0.5;
      }
    </style>
  </defs>
  <title>07a4a3fc-f181-4c72-b342-70564e97c532</title>
  <rect class="cls-1" x="2.5" y="2.5" width="500" height="500" rx="30" ry="30"/>
  <g>
    <line class="cls-2" x1="52.5" y1="152.5" x2="52.5" y2="52.5"/>
    <line class="cls-2" x1="152.5" y1="52.5" x2="52.5" y2="52.5"/>
  </g>
  <g>
    <line class="cls-2" x1="152.5" y1="452.5" x2="52.5" y2="452.5"/>
    <line class="cls-2" x1="52.5" y1="352.5" x2="52.5" y2="452.5"/>
  </g>
  <g>
    <line class="cls-2" x1="452.5" y1="352.5" x2="452.5" y2="452.5"/>
    <line class="cls-2" x1="352.5" y1="452.5" x2="452.5" y2="452.5"/>
  </g>
  <g>
    <line class="cls-2" x1="352.5" y1="52.5" x2="452.5" y2="52.5"/>
    <line class="cls-2" x1="452.5" y1="152.5" x2="452.5" y2="52.5"/>
  </g>
  <path class="cls-3" d="M423.436,162.176a11.052,11.052,0,0,1-.946,6.842l-340.147.022c-2.877,0,2.719-15.556,4.022-16.885,4.122-4.2,10.63-4.106,16.423-4.465,14.7-.91,29.452,1.6,44.1-.481a72.7,72.7,0,0,0,46.078-26.347c4.236-5.311,8.126-11.546,14.488-13.928,3.35-1.254,7.017-1.268,10.594-1.266l68.788.031c3.63,0,7.349.018,10.757,1.27,7.4,2.719,11.5,10.378,16.441,16.527,16.966,21.117,47.173,26.275,74.19,24.318,8.22-.6,16.816-1.65,24.436,1.492C418.023,151.516,422.516,156.716,423.436,162.176Z"/>
  <rect class="cls-4" x="82.313" y="176.262" width="340.311" height="176.156"/>
  <path class="cls-3" d="M82.313,359.647H422.624v8.083a14.464,14.464,0,0,1-14.459,14.459H96.772A14.464,14.464,0,0,1,82.313,367.73Z"/>
  <circle class="cls-5" cx="252.469" cy="265.003" r="72.296"/>
  <circle class="cls-6" cx="252.469" cy="264.997" r="61.451"/>
  <circle class="cls-7" cx="329.852" cy="199.013" r="7.23"/>
  <rect class="cls-8" x="117.281" y="138.278" width="21.689" height="15.41" rx="3" ry="3"/>
</svg>
