<svg id="Layer_1" data-name="Layer 1" xmlns="http://www.w3.org/2000/svg" viewBox="0 0 505 505">
  <defs>
    <style>
      .cls-1 {
        fill: #999;
        stroke: #4d4d4d;
        stroke-miterlimit: 10;
        stroke-width: 5px;
      }
    </style>
  </defs>
  <title>a637460b-27bd-44f6-a72a-12ec0566e82f</title>
  <path class="cls-1" d="M475.967,2.5H29.084A26.567,26.567,0,0,0,2.5,29.084V475.916A26.567,26.567,0,0,0,29.084,502.5H475.916A26.567,26.567,0,0,0,502.5,475.916V29.084A26.491,26.491,0,0,0,475.967,2.5Zm-19.9,206.909q-59.547,43.244-119.145,86.284c-4.031,2.857-4.8,5.154-3.215,9.848q23.191,70.186,45.872,140.473c.459,1.327.816,2.7,1.582,5.154-2.449-1.684-4.031-2.755-5.511-3.878q-59.088-43.015-118.073-86.08c-3.674-2.7-6.123-2.959-10-.1q-60.695,44.086-121.594,87.866c-1.021.714-2.041,1.378-3.878,2.551,5.817-17.961,11.277-35.055,16.838-52.1,10.409-32.044,20.767-64.139,31.33-96.132,1.225-3.674.2-5.409-2.7-7.552q-59.93-43.015-119.655-86.386a11.668,11.668,0,0,1-3.776-3.929H54.954c46.944,0,93.887-.051,140.831.1,4.694,0,6.684-1.327,8.113-5.919q22.808-71.028,45.974-141.953c.357-1.072.816-2.092,1.582-4.082.816,2.041,1.429,3.419,1.888,4.8,15.614,47.046,31.279,94.091,46.637,141.239,1.48,4.541,3.521,5.868,8.164,5.868,48.883-.1,97.816,0,146.7.051h6.021C458.669,207.317,457.393,208.388,456.067,209.409Z"/>
</svg>
