<svg id="Layer_1" data-name="Layer 1" xmlns="http://www.w3.org/2000/svg" viewBox="0 0 505 505">
  <defs>
    <style>
      .cls-1, .cls-4 {
        fill: #4d4d4d;
      }

      .cls-1 {
        stroke: #999;
      }

      .cls-1, .cls-2, .cls-3, .cls-4 {
        stroke-miterlimit: 10;
        stroke-width: 5px;
      }

      .cls-2 {
        fill: gray;
      }

      .cls-2, .cls-3 {
        stroke: #4d4d4d;
      }

      .cls-3 {
        fill: #999;
      }

      .cls-4 {
        stroke: gray;
      }
    </style>
  </defs>
  <title>b0c0f0be-4b26-4c4b-a994-699acdc597e3</title>
  <path class="cls-1" d="M502.5,32.5v440a30,30,0,0,1-30,30h-120v-100a100,100,0,0,0,0-200,100,100,0,0,1,0-200h120A30,30,0,0,1,502.5,32.5Z"/>
  <path class="cls-2" d="M252.5,402.5a100,100,0,0,1-100,100H32.5a30,30,0,0,1-30-30V32.5a30,30,0,0,1,30-30h120v100a100,100,0,0,0,0,200A100,100,0,0,1,252.5,402.5Z"/>
  <path class="cls-3" d="M352.5,302.5v100a100,100,0,0,1-100-100Z"/>
  <path class="cls-4" d="M252.5,202.5h-100v-100A100,100,0,0,1,252.5,202.5Z"/>
</svg>
