<svg id="Layer_1" data-name="Layer 1" xmlns="http://www.w3.org/2000/svg" viewBox="0 0 505 505">
  <defs>
    <style>
      .cls-1 {
        fill: #999;
        stroke: #4d4d4d;
        stroke-miterlimit: 10;
        stroke-width: 5px;
      }

      .cls-2 {
        fill: #f2f2f2;
      }

      .cls-3 {
        fill: #fff;
      }
    </style>
  </defs>
  <title>9f239e8d-6f9b-42f1-a440-a9dbacfc2787</title>
  <rect class="cls-1" x="2.5" y="2.5" width="500" height="500" rx="30" ry="30"/>
  <path class="cls-2" d="M441.975,285.806c0,24.808-20.844,44.91-46.548,44.91h-130.1l-.8-150.953v-.009a113.44,113.44,0,0,1,34.241-5.47c40.078,0,74.244,32.488,79.457,69.782a47.825,47.825,0,0,1,17.2-3.171C421.131,240.9,441.975,261.006,441.975,285.806Z"/>
  <g>
    <line class="cls-3" x1="255.975" y1="189.558" x2="255.975" y2="330.716"/>
    <path class="cls-3" d="M256.475,189.558c.79,11.763,1.387,23.526,2,35.29l.825,17.645.675,17.645c.213,5.882.611,11.763.95,17.645a167.267,167.267,0,0,1,.05,17.645q-.439,8.822-1.466,17.645a151.056,151.056,0,0,1-3.034,17.645h-1a151.059,151.059,0,0,1-3.034-17.645q-1.043-8.822-1.466-17.645a167.263,167.263,0,0,1,.05-17.645c.339-5.882.737-11.763.95-17.645l.675-17.645.825-17.645c.613-11.763,1.21-23.526,2-35.29Z"/>
  </g>
  <g>
    <line class="cls-3" x1="237.946" y1="198.702" x2="237.946" y2="330.716"/>
    <path class="cls-3" d="M238.446,198.7c.79,11,1.387,22,2,33l.825,16.5.675,16.5c.213,5.5.611,11,.95,16.5a146.306,146.306,0,0,1,.05,16.5c-.293,5.5-.771,11-1.466,16.5a132.948,132.948,0,0,1-3.034,16.5h-1a132.954,132.954,0,0,1-3.034-16.5c-.7-5.5-1.174-11-1.466-16.5a146.31,146.31,0,0,1,.05-16.5c.339-5.5.737-11,.95-16.5l.675-16.5.825-16.5c.613-11,1.21-22,2-33Z"/>
  </g>
  <g>
    <line class="cls-3" x1="221.372" y1="210.131" x2="221.372" y2="330.716"/>
    <path class="cls-3" d="M221.872,210.131c.79,10.049,1.387,20.1,2,30.146l.825,15.073.675,15.073c.213,5.024.611,10.049.95,15.073a122.088,122.088,0,0,1,.05,15.073c-.293,5.024-.771,10.049-1.466,15.073a112.029,112.029,0,0,1-3.034,15.073h-1a112.024,112.024,0,0,1-3.034-15.073c-.7-5.024-1.174-10.049-1.466-15.073a122.085,122.085,0,0,1,.05-15.073c.339-5.024.737-10.049.95-15.073l.675-15.073.825-15.073c.613-10.049,1.21-20.1,2-30.146Z"/>
  </g>
  <g>
    <line class="cls-3" x1="204.799" y1="206.131" x2="204.799" y2="330.716"/>
    <path class="cls-3" d="M205.3,206.131c.79,10.382,1.387,20.764,2,31.146l.825,15.573.675,15.573c.213,5.191.611,10.382.95,15.573a130.315,130.315,0,0,1,.05,15.573c-.293,5.191-.771,10.382-1.466,15.573a119.132,119.132,0,0,1-3.034,15.573h-1a119.137,119.137,0,0,1-3.034-15.573c-.7-5.191-1.174-10.382-1.466-15.573a130.318,130.318,0,0,1,.05-15.573c.339-5.191.737-10.382.95-15.573l.675-15.573.825-15.573c.613-10.382,1.21-20.764,2-31.146Z"/>
  </g>
  <g>
    <line class="cls-3" x1="188.797" y1="206.131" x2="188.797" y2="330.716"/>
    <path class="cls-3" d="M189.3,206.131c.79,10.382,1.387,20.764,2,31.146l.825,15.573.675,15.573c.213,5.191.611,10.382.95,15.573a130.312,130.312,0,0,1,.05,15.573c-.293,5.191-.771,10.382-1.466,15.573a119.132,119.132,0,0,1-3.034,15.573h-1a119.137,119.137,0,0,1-3.034-15.573c-.7-5.191-1.174-10.382-1.466-15.573a130.315,130.315,0,0,1,.05-15.573c.339-5.191.737-10.382.95-15.573l.675-15.573.825-15.573c.613-10.382,1.21-20.764,2-31.146Z"/>
  </g>
  <g>
    <line class="cls-3" x1="172.796" y1="210.131" x2="172.796" y2="330.716"/>
    <path class="cls-3" d="M173.3,210.131c.79,10.049,1.387,20.1,2,30.146l.825,15.073.675,15.073c.213,5.024.611,10.049.95,15.073a122.088,122.088,0,0,1,.05,15.073c-.293,5.024-.771,10.049-1.466,15.073a112.029,112.029,0,0,1-3.034,15.073h-1a112.024,112.024,0,0,1-3.034-15.073c-.7-5.024-1.174-10.049-1.466-15.073a122.085,122.085,0,0,1,.05-15.073c.339-5.024.737-10.049.95-15.073l.675-15.073.825-15.073c.613-10.049,1.21-20.1,2-30.146Z"/>
  </g>
  <g>
    <line class="cls-3" x1="155.651" y1="216.989" x2="155.651" y2="330.716"/>
    <path class="cls-3" d="M156.151,216.989c.79,9.477,1.387,18.954,2,28.432l.825,14.216.675,14.216c.213,4.739.611,9.477.95,14.216a108.607,108.607,0,0,1,.05,14.216c-.293,4.739-.771,9.477-1.466,14.216a100.38,100.38,0,0,1-3.034,14.216h-1a100.384,100.384,0,0,1-3.034-14.216c-.7-4.739-1.174-9.477-1.466-14.216a108.612,108.612,0,0,1,.05-14.216c.339-4.739.737-9.477.95-14.216l.675-14.216.825-14.216c.613-9.477,1.21-18.954,2-28.432Z"/>
  </g>
  <g>
    <line class="cls-3" x1="139.792" y1="235.277" x2="139.792" y2="330.716"/>
    <path class="cls-3" d="M140.292,235.277c.79,7.953,1.387,15.906,2,23.86l.825,11.93.675,11.93c.213,3.977.611,7.953.95,11.93a76.521,76.521,0,0,1,.05,11.93c-.293,3.977-.771,7.953-1.466,11.93a72.672,72.672,0,0,1-3.034,11.93h-1a72.675,72.675,0,0,1-3.034-11.93c-.7-3.977-1.174-7.953-1.466-11.93a76.525,76.525,0,0,1,.05-11.93c.339-3.977.737-7.953.95-11.93l.675-11.93.825-11.93c.613-7.953,1.21-15.906,2-23.86Z"/>
  </g>
  <g>
    <line class="cls-3" x1="124.219" y1="260.137" x2="124.219" y2="330.716"/>
    <path class="cls-3" d="M124.719,260.137c.79,5.882,1.387,11.763,2,17.645l.825,8.822.675,8.822c.213,2.941.611,5.882.95,8.822a41.9,41.9,0,0,1,.05,8.822,67.224,67.224,0,0,1-1.466,8.822,42.823,42.823,0,0,1-3.034,8.822h-1a42.823,42.823,0,0,1-3.034-8.822,67.224,67.224,0,0,1-1.466-8.822,41.9,41.9,0,0,1,.05-8.822c.339-2.941.737-5.882.95-8.822l.675-8.822.825-8.822c.613-5.882,1.21-11.763,2-17.645Z"/>
  </g>
  <g>
    <line class="cls-3" x1="108.789" y1="255.55" x2="108.789" y2="330.716"/>
    <path class="cls-3" d="M109.289,255.55c.79,6.264,1.387,12.528,2,18.791l.825,9.4.675,9.4c.213,3.132.611,6.264.95,9.4a47.511,47.511,0,0,1,.05,9.4,75.874,75.874,0,0,1-1.466,9.4,47.651,47.651,0,0,1-3.034,9.4h-1a47.651,47.651,0,0,1-3.034-9.4,75.874,75.874,0,0,1-1.466-9.4,47.511,47.511,0,0,1,.05-9.4c.339-3.132.737-6.264.95-9.4l.675-9.4.825-9.4c.613-6.264,1.21-12.528,2-18.791Z"/>
  </g>
  <g>
    <line class="cls-3" x1="92.787" y1="255.55" x2="92.787" y2="330.716"/>
    <path class="cls-3" d="M93.287,255.55c.79,6.264,1.387,12.528,2,18.791l.825,9.4.675,9.4c.213,3.132.611,6.264.95,9.4a47.511,47.511,0,0,1,.05,9.4,75.874,75.874,0,0,1-1.466,9.4,47.651,47.651,0,0,1-3.034,9.4h-1a47.651,47.651,0,0,1-3.034-9.4,75.873,75.873,0,0,1-1.466-9.4,47.512,47.512,0,0,1,.05-9.4c.339-3.132.737-6.264.95-9.4l.675-9.4.825-9.4c.613-6.264,1.21-12.528,2-18.791Z"/>
  </g>
  <g>
    <line class="cls-3" x1="76.785" y1="260.137" x2="76.785" y2="323.858"/>
    <path class="cls-3" d="M77.285,260.137c.79,5.31,1.387,10.62,2,15.93l.825,7.965L80.785,292c.2,2.655.627,5.31.95,7.965a34.178,34.178,0,0,1,.05,7.965,55.308,55.308,0,0,1-1.466,7.965,36.182,36.182,0,0,1-3.034,7.965h-1a36.182,36.182,0,0,1-3.034-7.965,55.309,55.309,0,0,1-1.466-7.965,34.178,34.178,0,0,1,.05-7.965c.323-2.655.746-5.31.95-7.965l.675-7.965.825-7.965c.613-5.31,1.21-10.62,2-15.93Z"/>
  </g>
  <g>
    <line class="cls-3" x1="63.025" y1="276.932" x2="63.025" y2="309.825"/>
    <path class="cls-3" d="M63.525,276.932c.791,2.741,1.387,5.482,2,8.223q.895,4.112,1.5,8.223c.2,1.371.63,2.741.95,4.112a9.194,9.194,0,0,1,.05,4.112,16.817,16.817,0,0,1-1.466,4.112,15.146,15.146,0,0,1-3.034,4.112h-1a15.146,15.146,0,0,1-3.034-4.112,16.817,16.817,0,0,1-1.466-4.112,9.194,9.194,0,0,1,.05-4.112c.32-1.371.751-2.741.95-4.112q.605-4.112,1.5-8.223c.613-2.741,1.209-5.482,2-8.223Z"/>
  </g>
</svg>
