<svg id="Layer_1" data-name="Layer 1" xmlns="http://www.w3.org/2000/svg" xmlns:xlink="http://www.w3.org/1999/xlink" viewBox="0 0 505 505">
  <defs>
    <style>
      .cls-1, .cls-2, .cls-5, .cls-6 {
        fill: none;
      }

      .cls-1, .cls-3, .cls-6 {
        stroke: #4d4d4d;
      }

      .cls-1, .cls-2, .cls-3, .cls-5, .cls-6 {
        stroke-miterlimit: 10;
      }

      .cls-1 {
        stroke-width: 5px;
      }

      .cls-2 {
        stroke: #999;
      }

      .cls-3 {
        stroke-width: 0.25px;
        fill: url(#radial-gradient);
      }

      .cls-4 {
        fill: #ccc;
      }

      .cls-5 {
        stroke: #000;
      }
    </style>
    <radialGradient id="radial-gradient" cx="412.5" cy="102.5" r="10" gradientUnits="userSpaceOnUse">
      <stop offset="0" stop-color="#999"/>
      <stop offset="0.318" stop-color="#9c9c9c"/>
      <stop offset="0.509" stop-color="#a4a4a4"/>
      <stop offset="0.666" stop-color="#b2b2b2"/>
      <stop offset="0.806" stop-color="#c6c6c6"/>
      <stop offset="0.932" stop-color="#e0e0e0"/>
      <stop offset="1" stop-color="#f2f2f2"/>
    </radialGradient>
  </defs>
  <title>cf2668a2-a1c9-471f-9768-5b2c1bac8121</title>
  <rect class="cls-1" x="2.5" y="2.5" width="500" height="500" rx="30" ry="30"/>
  <g>
    <line class="cls-2" x1="52.5" y1="152.5" x2="52.5" y2="52.5"/>
    <line class="cls-2" x1="152.5" y1="52.5" x2="52.5" y2="52.5"/>
  </g>
  <g>
    <line class="cls-2" x1="152.5" y1="452.5" x2="52.5" y2="452.5"/>
    <line class="cls-2" x1="52.5" y1="352.5" x2="52.5" y2="452.5"/>
  </g>
  <g>
    <line class="cls-2" x1="452.5" y1="352.5" x2="452.5" y2="452.5"/>
    <line class="cls-2" x1="352.5" y1="452.5" x2="452.5" y2="452.5"/>
  </g>
  <g>
    <line class="cls-2" x1="352.5" y1="52.5" x2="452.5" y2="52.5"/>
    <line class="cls-2" x1="452.5" y1="152.5" x2="452.5" y2="52.5"/>
  </g>
  <circle class="cls-3" cx="412.5" cy="102.5" r="10"/>
  <g>
    <path class="cls-4" d="M360.527,94.879a22.683,22.683,0,0,1,4.174-.35c2.324,0,3.824.425,4.874,1.375a4.2,4.2,0,0,1,1.325,3.2,4.423,4.423,0,0,1-3.175,4.3v.075c1.3.45,2.074,1.649,2.475,3.4a26.737,26.737,0,0,0,1.3,4.624h-2.25a21.866,21.866,0,0,1-1.124-4.024c-.5-2.325-1.4-3.2-3.375-3.274H362.7v7.3h-2.175Zm2.175,7.673h2.225c2.324,0,3.8-1.275,3.8-3.2,0-2.174-1.575-3.125-3.874-3.149a8.933,8.933,0,0,0-2.149.2Z"/>
    <path class="cls-4" d="M382.7,103.6h-6.548v6.073h7.3V111.5h-9.473V94.654h9.1v1.824h-6.923V101.8H382.7Z"/>
    <path class="cls-4" d="M398.05,110.95a10.794,10.794,0,0,1-4.449.8c-4.749,0-8.323-3-8.323-8.523,0-5.274,3.574-8.848,8.8-8.848a9.03,9.03,0,0,1,4,.75L397.55,96.9a7.931,7.931,0,0,0-3.4-.7c-3.949,0-6.573,2.524-6.573,6.948,0,4.124,2.374,6.773,6.474,6.773a8.706,8.706,0,0,0,3.549-.7Z"/>
  </g>
  <path class="cls-5" d="M313.965,172.638,299.412,288.669a29.975,29.975,0,0,1-25.252,25.919,29.991,29.991,0,0,0-59.474-7.459,29.975,29.975,0,0,1-18.069-31.352l2.036-16.233,59.534,7.467,1.867-14.883L200.52,244.66l1.926-15.36,59.534,7.467,1.867-14.883-59.534-7.467,1.928-15.37,59.534,7.467,1.867-14.883-59.534-7.467,1.928-15.37,59.534,7.467,1.867-14.883-58.958-7.395a29.993,29.993,0,0,1,32.193-20.271l43.261,5.426A30,30,0,0,1,313.965,172.638Z"/>
  <path class="cls-6" d="M264.75,309.36a19.67,19.67,0,0,1-6.15,14.33v48.26H231.31V323.69a19.79,19.79,0,1,1,33.44-14.33Z"/>
</svg>
